<svg id="SvgjsSvg1001" width="288" height="288" xmlns="http://www.w3.org/2000/svg" version="1.1" xmlns:xlink="http://www.w3.org/1999/xlink" xmlns:svgjs="http://svgjs.com/svgjs"><defs id="SvgjsDefs1002"></defs><g id="SvgjsG1008"><svg xmlns="http://www.w3.org/2000/svg" viewBox="0 0 24 24" width="288" height="288"><g data-name="28. Edit" fill="#ecd551" class="color000 svgShape"><path d="M15.95,14.08l-2.78.69a3.489,3.489,0,0,1-.79.1,3.223,3.223,0,0,1-2.3-.96,3.271,3.271,0,0,1-.85-3.08l.7-2.78a4.026,4.026,0,0,1,1.05-1.86L15.17,2H4A4,4,0,0,0,0,6V20a4,4,0,0,0,4,4H18a4,4,0,0,0,4-4V8.83l-4.19,4.19A4.045,4.045,0,0,1,15.95,14.08Z" fill="#ecd551" class="color000 svgShape"></path><path d="M23.293,1.293,22.707.707a2.414,2.414,0,0,0-3.414,0l-6.9,6.9a2,2,0,0,0-.526.929l-.694,2.777a1.248,1.248,0,0,0,1.514,1.514l2.777-.694a2,2,0,0,0,.929-.526l6.9-6.9a2.414,2.414,0,0,0,0-3.414Z" fill="#ecd551" class="color000 svgShape"></path></g></svg></g></svg>